<svg height="512pt" viewBox="0 -1 512.00184 512" width="512pt" xmlns="http://www.w3.org/2000/svg"><path d="m49.460938 209.160156 43.394531-26.4375 80.085937 131.445313-43.394531 26.4375zm0 0" fill="#e3996d"/><path d="m149.558594 325.59375-78.832032-129.390625-21.269531 12.957031 80.085938 131.445313zm0 0" fill="#d87c41"/><path d="m188.53125 275.746094c-5.21875-7.476563-15.339844-9.628906-23.125-4.882813l-70.894531 43.191407c-7.785157 4.742187-10.519531 14.722656-6.265625 22.789062 13.800781 26.195312 48.464844 78.175781 106.5 78.875 6.339844.074219 12.195312-3.492188 15.035156-9.160156 25.996094-51.890625-4.300781-106.535156-21.25-130.8125zm0 0" fill="#a4afba"/><path d="m114.265625 316.828125c-2.417969-4.589844-2.570313-9.796875-.824219-14.308594l-18.929687 11.535157c-7.785157 4.742187-10.519531 14.722656-6.265625 22.789062 13.800781 26.195312 48.464844 78.179688 106.5 78.875 6.339844.074219 12.195312-3.492188 15.035156-9.160156 1.855469-3.703125 3.414062-7.421875 4.722656-11.140625-54.273437-4.183594-86.941406-53.351563-100.238281-78.589844zm0 0" fill="#8596a4"/><path d="m58.457031 126.265625-43.394531 26.4375c-7.628906 4.648437-10.046875 14.605469-5.398438 22.234375l35.203126 57.78125c4.648437 7.628906 14.605468 10.046875 22.234374 5.398438l43.394532-26.4375c7.628906-4.648438 10.046875-14.605469 5.398437-22.234376l-35.203125-57.78125c-4.648437-7.628906-14.601562-10.046874-22.234375-5.398437zm0 0" fill="#a4afba"/><path d="m88.023438 225.109375-48.726563-79.976563c-1.109375-1.820312-1.917969-3.734374-2.460937-5.691406l-21.773438 13.261719c-7.628906 4.648437-10.046875 14.605469-5.398438 22.238281l35.203126 57.777344c4.648437 7.632812 14.605468 10.046875 22.234374 5.398438l21.042969-12.820313c-.039062-.0625-.082031-.121094-.121093-.1875zm0 0" fill="#8596a4"/><path d="m199.175781 37.945312c-28.527343-16.480468-63.003906-15.863281-94.460937-1.542968-8.03125 3.65625-12.886719 12.0625-12.042969 20.847656 3.304687 34.402344 19.988281 64.582031 48.515625 81.0625 32.410156 18.722656 72.496094 15.378906 107.109375-5.054688.410156-40.1875-16.714844-76.589843-49.121094-95.3125zm0 0" fill="#00c680"/><path d="m151.199219 118.296875c-28.460938-16.445313-45.132813-46.519531-48.492188-80.824219-6.8125 4.0625-10.804687 11.757813-10.035156 19.777344 3.304687 34.402344 19.988281 64.582031 48.515625 81.0625 32.410156 18.726562 72.496094 15.378906 107.109375-5.054688.046875-4.851562-.164063-9.648437-.621094-14.367187-31.992187 15.226563-67.339843 16.242187-96.476562-.59375zm0 0" fill="#00a45b"/><path d="m326.964844 182.429688c28.527344-16.480469 63.007812-15.863282 94.460937-1.542969 8.03125 3.65625 12.886719 12.0625 12.042969 20.847656-3.304688 34.402344-19.988281 64.578125-48.515625 81.0625-32.410156 18.722656-72.496094 15.375-107.105469-5.054687-.414062-40.191407 16.710938-76.589844 49.117188-95.3125zm0 0" fill="#00c680"/><path d="m423.433594 181.957031c-3.359375 34.304688-20.027344 64.378907-48.488282 80.820313-29.140624 16.835937-64.488281 15.820312-96.480468.59375-.457032 4.71875-.667969 9.515625-.617188 14.371094 34.609375 20.429687 74.695313 23.777343 107.105469 5.054687 28.527344-16.484375 45.210937-46.660156 48.515625-81.0625.769531-8.023437-3.21875-15.714844-10.035156-19.777344zm0 0" fill="#00a45b"/><path d="m263.070312 7.507812c-11.625 0-21.046874 9.421876-21.046874 21.042969v373.527344h42.09375v-373.523437c0-11.625-9.421876-21.046876-21.046876-21.046876zm0 0" fill="#60d9a7"/><path d="m499.945312 464.675781c-.085937-.117187-.171874-.230469-.261718-.34375-3.363282-4.457031-6.132813-9.328125-8.238282-14.5l-4.894531-12.007812c-8.382812-20.558594-26.757812-35.351563-48.628906-39.148438l-4.300781-.75c-11.398438-1.980469-22.054688-6.992187-30.847656-14.511719l-7.273438-6.222656c-14.605469-12.492187-34.023438-17.808594-52.957031-14.503906l-7.34375 1.285156c-12.78125 2.230469-25.9375.550782-37.746094-4.816406l-7.722656-3.511719c-16.9375-7.699219-36.378907-7.699219-53.320313 0l-7.722656 3.511719c-11.808594 5.371094-24.964844 7.046875-37.742188 4.816406l-7.347656-1.28125c-18.929687-3.308594-38.351562 2.011719-52.953125 14.503906l-7.273437 6.21875c-8.792969 7.519532-19.449219 12.53125-30.847656 14.511719l-4.300782.75c-21.871094 3.796875-40.246094 18.589844-48.625 39.148438l-4.820312 11.820312c-2.132813 5.230469-4.929688 10.164063-8.316406 14.683594l-.003907.003906c-.085937.113281-.171875.230469-.257812.34375-11.824219 15.878907-.234375 38.46875 19.5625 38.46875h434.625c19.792969 0 31.378906-22.589843 19.558593-38.46875zm0 0" fill="#e3996d"/><path d="m66.230469 474.683594c.085937-.113282.171875-.230469.257812-.34375l.003907-.003906c3.386718-4.519532 6.183593-9.457032 8.316406-14.683594l4.816406-11.824219c8.382812-20.554687 26.757812-35.351563 48.628906-39.148437l4.300782-.746094c11.398437-1.980469 22.054687-6.992188 30.847656-14.515625l7.269531-6.21875c14.605469-12.492188 34.023437-17.808594 52.957031-14.503907l7.34375 1.285157c12.78125 2.230469 25.933594.550781 37.746094-4.816407l7.722656-3.511718c7.316406-3.324219 15.097656-5.207032 22.945313-5.660156-.648438-.269532-1.296875-.546876-1.9375-.835938l-7.71875-3.511719c-16.941407-7.699219-36.382813-7.699219-53.320313 0l-7.722656 3.511719c-11.8125 5.371094-24.964844 7.046875-37.746094 4.816406l-7.34375-1.285156c-18.929687-3.304688-38.351562 2.011719-52.957031 14.503906l-7.269531 6.21875c-8.792969 7.523438-19.449219 12.535156-30.847656 14.515625l-4.300782.746094c-21.871094 3.800781-40.246094 18.59375-48.628906 39.148437l-4.816406 11.824219c-2.132813 5.230469-4.929688 10.164063-8.316406 14.683594l-.003907.003906c-.085937.113281-.171875.230469-.257812.34375-11.824219 15.878907-.234375 38.46875 19.5625 38.46875h20.410156c-5.789063-7.996093-6.738281-19.335937.058594-28.460937zm0 0" fill="#d87c41"/><path d="m178 420.582031c-4.148438 0-7.507812 3.359375-7.507812 7.507813v15.429687c0 4.144531 3.359374 7.507813 7.507812 7.507813 4.144531 0 7.503906-3.363282 7.503906-7.507813v-15.429687c0-4.148438-3.359375-7.507813-7.503906-7.507813zm0 0"/><path d="m348.542969 420.582031c-4.144531 0-7.503907 3.359375-7.503907 7.507813v15.429687c0 4.144531 3.359376 7.507813 7.503907 7.507813s7.507812-3.363282 7.507812-7.507813v-15.429687c0-4.148438-3.363281-7.507813-7.507812-7.507813zm0 0"/><path d="m289.257812 436.796875c-3.121093-2.730469-7.863281-2.410156-10.59375.710937-3.746093 4.285157-9.359374 6.746094-15.394531 6.746094-6.035156 0-11.648437-2.460937-15.394531-6.746094-2.726562-3.121093-7.46875-3.441406-10.589844-.710937-3.125 2.726563-3.441406 7.46875-.710937 10.589844 6.597656 7.550781 16.328125 11.878906 26.695312 11.878906 10.367188 0 20.101563-4.328125 26.699219-11.878906 2.726562-3.121094 2.410156-7.863281-.710938-10.589844zm0 0"/><path d="m505.878906 459.804688c-5.46875-7.496094-8.699218-16.289063-12.179687-24.8125-9.417969-23.101563-29.714844-39.445313-54.292969-43.714844-14.589844 0-28.390625-10.863282-38.828125-19.792969-16.15625-13.816406-38.195313-19.84375-59.125-16.191406-14.082031 2.460937-27.328125 3.105469-40.695313-2.96875 0 0-8.53125-3.851563-8.933593-4.027344v-55.300781c15.160156 6.277344 30.941406 9.582031 46.246093 9.617187 4.242188 0 7.71875-3.671875 7.496094-7.902343-.003906-.085938-.011718-.183594-.019531-.28125-.332031-4.027344-3.828125-7.082032-7.875-6.875-.15625.007812-.3125.019531-.46875.039062-14.382813-.167969-29.308594-3.671875-43.578125-10.1875l80.574219-46.550781c3.589843-2.074219 4.820312-6.664063 2.746093-10.253907-2.074218-3.589843-6.664062-4.816406-10.253906-2.742187l-74.867187 43.253906v-23.382812c7.433593-21.453125 20.929687-38.308594 39.097656-48.804688 25.277344-14.605469 57.203125-15.046875 87.59375-1.210937 5.132813 2.339844 8.222656 7.683594 7.683594 13.300781-3.195313 33.234375-19.523438 60.675781-44.800781 75.277344-5.175782 2.992187-10.683594 5.425781-16.375 7.242187-3.949219 1.257813-6.132813 5.480469-4.871094 9.429688 1.257812 3.949218 5.480468 6.132812 9.429687 4.871094 6.71875-2.140626 13.21875-5.015626 19.324219-8.542969 29.535156-17.0625 48.570312-48.714844 52.234375-86.84375 1.152344-11.992188-5.441406-23.402344-16.40625-28.394531-34.859375-15.871094-71.792969-15.1875-101.324219 1.875-12.566406 7.257812-23.195312 17.070312-31.585937 28.984374v-176.359374c0-15.746094-12.808594-28.554688-28.554688-28.554688-15.742187 0-28.550781 12.808594-28.550781 28.554688v31.878906c-8.390625-11.914063-19.023438-21.726563-31.589844-28.988282-11.457031-6.617187-24.03125-10.824218-37.375-12.503906-4.113281-.515625-7.867187 2.398438-8.382812 6.511719-.519532 4.113281 2.398437 7.867187 6.511718 8.382813 11.34375 1.425781 22.023438 4.996093 31.738282 10.609374 18.164062 10.492188 31.664062 27.351563 39.097656 48.804688v23.378906l-74.867188-43.253906c-3.589843-2.070312-8.179687-.84375-10.253906 2.746094-2.074218 3.589844-.84375 8.179687 2.742188 10.253906l80.582031 46.554688c-30.511719 13.988281-62.1875 13.667968-87.777344-1.117188-25.28125-14.605469-41.609375-42.042969-44.800781-75.277344-.539062-5.617187 2.546875-10.960937 7.683594-13.300781 9.355468-4.257813 18.96875-7.214844 28.570312-8.785156 4.089844-.667969 6.863282-4.527344 6.195313-8.621094-.667969-4.089844-4.527344-6.867187-8.621094-6.195313-10.910156 1.785157-21.800781 5.128907-32.367187 9.941407-10.964844 4.992187-17.558594 16.402343-16.40625 28.394531 3.664062 38.128906 22.703124 69.78125 52.234374 86.84375 15.472657 8.941406 32.753907 13.402344 50.675782 13.402344 15.246094 0 30.953125-3.234375 46.410156-9.679688v199.761719c-.40625.175781-7.6875 3.457031-7.6875 3.457031-3.394531-34.402344-21.164062-64.574218-32.144531-80.304687-7.386719-10.578125-22.167969-13.707031-33.1875-6.996094l-7.339844 4.472656-33.992187-55.792969c2.34375-2.769531 4.042968-6.050781 4.925781-9.679687 1.492187-6.148437.5-12.507813-2.789063-17.914063 0 0-35.167968-57.71875-35.203125-57.777343-6.714843-11.019531-21.527343-14.617188-32.550781-7.902344l-43.394531 26.4375c-11.152344 6.792969-14.699219 21.394531-7.902344 32.550781 0 0 35.164063 57.714844 35.203125 57.777344 5.234375 8.59375 15.699219 13.003906 25.5 10.761719l33.988281 55.789062-7.339843 4.46875c-11.132813 6.785157-15.089844 21.148438-9 32.703125 6.058593 11.503906 15.898437 27.601563 29.761718 42.546875-6.144531 3.789063-12.972656 6.394531-20.128906 7.640625-26.152344 4.542969-48.3125 19.242188-58.59375 44.457032-3.574219 8.769531-6.753906 17.535156-12.464844 25.203124-15.300781 20.539063.222656 50.457032 25.578125 50.457032h434.625c26-.003906 40.359375-30.199219 25.296875-50.847656zm-256.148437-431.25c0-7.46875 6.074219-13.542969 13.539062-13.542969 7.464844 0 13.539063 6.074219 13.539063 13.542969v315.109374c-4.433594-.847656-8.953125-1.300781-13.539063-1.300781-4.585937 0-9.105469.453125-13.539062 1.300781zm-198.253907 200.257812-35.203124-57.777344c-2.488282-4.085937-1.1875-9.433594 2.898437-11.921875 0 0 43.332031-26.402343 43.390625-26.4375 4.050781-2.464843 9.453125-1.152343 11.921875 2.894531 0 0 35.144531 57.6875 35.199219 57.78125 2.464844 4.039063 1.132812 9.46875-2.894532 11.917969l-43.394531 26.4375c-4.042969 2.464844-9.445312 1.152344-11.917969-2.894531zm59.492188 66.546875-33.351562-54.738281 30.574218-18.625 33.347656 54.738281zm-12.351562 25.105469s70.878906-43.183594 70.894531-43.191406c4.351562-2.652344 10.15625-1.394532 13.066406 2.769531 10.460937 14.984375 27.636719 44.132812 29.792969 76.464843-.066406.011719-6.128906.835938-9.121094.894532-10.132812.175781-20.277344-3.179688-30.539062-3.179688-18.613282 0-35.289063 7.464844-49.253907 19.410156-13.222656-14.007812-22.617187-29.363281-28.371093-40.285156-2.402344-4.554687-.851563-10.214844 3.53125-12.882812zm396.96875 165.890625c-2.921876 5.8125-8.527344 9.28125-15.003907 9.28125 0 0-434.277343 0-434.621093 0-13.316407 0-21.585938-15.675781-13.535157-26.488281 6.464844-8.632813 10.242188-18.605469 14.320313-28.492188 7.453125-18.28125 23.511718-31.210938 42.960937-34.589844 20.078125-3.484375 33.980469-14.882812 50.003907-26.285156 12.277343-8.738281 27.953124-12.289062 42.792968-9.699219 20.4375 3.570313 38.46875.917969 57.214844-7.605469 14.738281-6.699218 32.359375-6.703124 47.105469 0 18.730469 8.515626 36.980469 11.136719 57.210937 7.605469 21.390625-3.738281 38.425782 5.660157 54.058594 19.035157 11.191406 9.570312 24.414062 14.460937 38.746094 16.949218 19.449218 3.378906 35.507812 16.3125 42.960937 34.589844 4.007813 9.832031 7.628907 19.632812 14.089844 28.1875l.234375.3125c3.773438 5.070312 4.320312 11.5 1.460938 17.199219zm0 0"/></svg>