<svg height="512pt" viewBox="0 0 512 512" width="512pt" xmlns="http://www.w3.org/2000/svg"><path d="m512 256c0 141.386719-114.613281 256-256 256s-256-114.613281-256-256 114.613281-256 256-256 256 114.613281 256 256zm0 0" fill="#ab5a1d"/><path d="m209.578125 284.605469-38.375 103.140625 87.546875 87.550781-1.121094 36.683594c134.15625-.839844 243.828125-104.851563 253.652344-236.695313l-140.289062-140.285156-47.683594 64.289062-54.136719-58.777343-.902344 22.773437-44.261719-44.261718-60.320312 70.472656 100.710938 100.710937-1.457032 47.757813zm0 0" fill="#783f16"/><path d="m250 210.664062h-27.949219c-50.285156 0-91.050781-40.761718-91.050781-91.046874v-27.953126h27.949219c50.285156 0 91.050781 40.765626 91.050781 91.050782zm0 0" fill="#5bd367"/><path d="m262 243.992188v-25.601563c0-46.054687 37.335938-83.390625 83.390625-83.390625h25.601563v25.601562c0 46.054688-37.335938 83.390626-83.390626 83.390626zm0 0" fill="#3fb24f"/><path d="m256.941406 434.351562v-35.726562c0-64.277344 52.109375-116.382812 116.382813-116.382812h35.730469v35.726562c0 64.277344-52.105469 116.382812-116.382813 116.382812zm0 0" fill="#3fb24f"/><path d="m245.65625 396.464844v-32.402344c0-58.292969-47.257812-105.550781-105.550781-105.546875h-32.402344v32.402344c0 58.292969 47.257813 105.546875 105.550781 105.546875zm0 0" fill="#5bd367"/><path d="m237.5 511.050781c7.253906.613281 14.585938.949219 22 .949219 5.035156 0 10.035156-.160156 15-.449219v-358.050781c0-10.21875-8.28125-18.5-18.5-18.5s-18.5 8.28125-18.5 18.5zm0 0" fill="#75ea7e"/><path d="m256 135c-.136719 0-.269531.019531-.40625.019531v376.9375c1.300781.019531 2.601562.042969 3.90625.042969 5.035156 0 10.035156-.160156 15-.449219v-358.050781c0-10.21875-8.28125-18.5-18.5-18.5zm0 0" fill="#5bd367"/></svg>